<?xml version="1.0" standalone="no"?>
<!DOCTYPE svg PUBLIC "-//W3C//DTD SVG 20010904//EN"
 "http://www.w3.org/TR/2001/REC-SVG-20010904/DTD/svg10.dtd">
<svg version="1.0" xmlns="http://www.w3.org/2000/svg"
 width="1152.000000pt" height="1152.000000pt" viewBox="0 0 1152.000000 1152.000000"
 preserveAspectRatio="xMidYMid meet">
<metadata>
Created by potrace 1.11, written by Peter Selinger 2001-2013
</metadata>
<g transform="translate(0.000000,1152.000000) scale(0.100000,-0.100000)"
fill="#000000" stroke="none">
<path d="M4032 11504 c-18 -8 -40 -16 -50 -18 -9 -1 -24 -6 -32 -9 -15 -5
-331 -110 -340 -112 -3 -1 -12 -5 -20 -8 -57 -23 -398 -143 -595 -208 -179
-60 -169 -57 -175 -56 -3 0 -15 -5 -28 -12 -13 -7 -31 -14 -40 -16 -9 -2 -64
-20 -122 -40 -58 -21 -112 -38 -120 -40 -29 -6 -156 -53 -205 -76 -27 -13 -65
-39 -84 -59 l-35 -35 -2 -310 c-1 -170 -5 -578 -9 -905 -4 -327 -8 -818 -9
-1091 -2 -273 -6 -501 -10 -507 -3 -6 -3 -13 2 -16 8 -5 7 -75 -2 -83 -2 -3
-1 -17 3 -31 5 -15 5 -36 1 -47 -4 -11 -4 -30 1 -42 5 -12 5 -24 0 -27 -4 -3
-5 -28 -1 -56 4 -27 3 -50 0 -50 -4 0 -7 -1518 -7 -3374 l-1 -3373 36 -38 c47
-48 124 -100 232 -155 47 -23 119 -62 160 -85 41 -23 125 -68 185 -100 61 -32
133 -70 160 -85 28 -15 79 -42 115 -61 36 -18 82 -43 103 -56 20 -13 37 -20
37 -17 0 4 6 2 13 -4 13 -11 51 -32 202 -112 55 -30 123 -66 150 -82 73 -42
168 -91 182 -95 112 -32 74 -49 1163 503 96 49 202 100 235 113 96 39 207 97
242 128 68 60 66 41 63 718 -1 336 -3 696 -3 800 -1 164 2 208 16 271 4 17 35
61 59 83 24 23 184 104 248 126 27 9 182 75 230 98 25 12 47 22 50 23 6 1 53
22 143 63 34 16 85 39 112 51 102 46 327 151 408 190 46 22 89 40 96 40 6 0
11 5 11 10 0 6 9 10 20 10 11 0 20 5 20 10 0 6 5 10 11 10 7 0 55 21 108 46
53 26 123 59 156 74 33 15 85 39 115 53 30 14 107 48 170 77 169 76 217 98
303 141 42 21 77 36 77 32 0 -3 6 -1 13 5 6 5 73 41 147 79 231 120 441 256
570 369 59 53 226 219 250 250 8 11 40 51 70 89 111 139 230 347 302 525 41
102 72 184 70 187 -1 2 5 21 13 44 9 23 17 51 20 63 2 12 12 48 20 81 9 33 17
71 19 85 2 14 7 36 10 50 8 33 15 76 22 125 3 22 8 51 10 65 3 14 7 41 9 60 2
19 6 62 10 95 11 95 14 133 19 240 3 55 6 100 7 100 12 0 18 1488 7 1630 -16
187 -24 259 -43 370 -3 17 -8 46 -11 65 -3 19 -7 43 -10 52 -3 10 -7 28 -10
40 -23 123 -84 325 -141 463 -29 71 -140 292 -153 305 -3 3 -26 37 -53 76 -26
39 -55 81 -65 92 -9 11 -28 36 -42 54 -49 65 -246 255 -335 323 -49 38 -92 72
-95 75 -7 9 -229 153 -270 176 -19 10 -36 22 -38 27 -2 4 -9 7 -17 7 -7 0 -18
7 -25 15 -7 8 -16 12 -21 9 -5 -3 -9 0 -9 5 0 6 -4 11 -10 11 -5 0 -38 18 -73
39 -183 112 -379 201 -727 332 -135 50 -267 100 -295 111 -27 11 -54 21 -60
22 -5 2 -23 9 -40 15 -16 7 -66 27 -110 43 -44 17 -102 39 -130 50 -27 11 -54
21 -60 22 -5 2 -17 6 -25 9 -8 4 -85 32 -170 63 -85 31 -191 70 -235 86 -44
17 -98 36 -120 43 -22 7 -60 20 -85 30 -46 17 -60 23 -185 71 -38 14 -92 37
-120 49 -97 44 -151 66 -215 91 -36 14 -78 31 -95 37 -16 7 -32 12 -35 13 -3
0 -16 5 -30 11 -14 6 -88 32 -165 58 -77 27 -144 52 -150 57 -5 4 -16 8 -23 8
-13 0 -152 48 -207 71 -11 5 -70 29 -131 53 -61 25 -134 56 -162 69 -28 13
-63 28 -79 32 -15 5 -30 9 -33 10 -111 33 -182 40 -228 19z m177 -399 c36 -12
113 -44 171 -72 140 -68 244 -109 590 -233 295 -106 399 -146 535 -206 22 -10
43 -18 46 -18 3 -1 30 -12 60 -25 71 -31 82 -35 339 -129 129 -48 179 -65 190
-67 3 0 32 -11 65 -24 33 -13 65 -24 70 -25 6 -2 23 -8 38 -14 16 -7 32 -12
37 -12 5 0 24 -6 42 -14 18 -8 71 -29 118 -46 47 -17 94 -35 105 -40 111 -49
379 -158 554 -226 119 -47 227 -90 241 -96 14 -6 34 -14 45 -18 21 -8 69 -28
133 -56 152 -67 328 -162 432 -236 35 -23 70 -47 79 -53 9 -5 18 -12 21 -15 3
-3 34 -30 70 -60 36 -30 96 -84 133 -119 37 -36 71 -68 75 -71 4 -3 32 -34 62
-70 30 -36 57 -67 60 -70 16 -15 103 -135 145 -200 161 -249 286 -582 321
-845 2 -22 7 -51 10 -65 11 -48 17 -166 18 -310 0 -160 -8 -277 -28 -387 -3
-18 -8 -46 -11 -61 -8 -46 -55 -224 -63 -236 -4 -6 -7 -13 -7 -16 -2 -15 -30
-89 -43 -115 -9 -16 -17 -32 -17 -35 -3 -12 -52 -108 -69 -135 -64 -102 -121
-191 -126 -195 -3 -3 -32 -39 -64 -80 -55 -70 -222 -242 -291 -300 -129 -109
-381 -290 -403 -290 -6 0 -12 -4 -14 -8 -1 -4 -55 -38 -118 -75 -63 -37 -122
-72 -130 -77 -76 -47 -694 -355 -730 -364 -3 -1 -40 -18 -83 -39 -44 -20 -81
-37 -83 -37 -2 0 -39 -16 -81 -36 -72 -33 -120 -55 -133 -59 -11 -4 -58 -24
-110 -48 -30 -14 -98 -44 -150 -67 -117 -52 -162 -72 -268 -121 -46 -22 -86
-39 -87 -39 -2 0 -59 -27 -127 -59 -129 -62 -198 -87 -261 -94 -41 -5 -44 -3
-51 39 -3 16 -8 43 -11 61 -6 39 -6 44 -7 648 -1 226 22 255 273 355 111 44
243 100 354 150 11 5 51 23 88 39 38 17 70 31 72 31 3 0 40 16 82 36 43 19 87
39 98 44 211 91 510 245 556 286 8 8 18 14 22 14 6 0 134 87 153 105 6 5 31
26 55 45 74 60 194 188 252 268 69 96 161 278 182 362 1 3 4 12 7 20 9 23 37
141 42 175 3 17 8 46 11 65 11 63 15 133 15 270 0 165 -5 219 -34 359 -8 35
-46 149 -67 199 -10 23 -18 43 -17 45 1 1 -10 20 -24 42 -13 22 -27 47 -31 57
-3 9 -30 54 -60 100 -213 330 -527 566 -1047 788 -69 29 -129 56 -135 59 -5 4
-28 13 -50 20 -22 7 -49 16 -60 21 -11 5 -58 23 -105 40 -47 17 -94 35 -105
40 -11 5 -47 18 -80 30 -33 11 -67 23 -75 27 -8 3 -19 7 -25 8 -28 7 -230 87
-298 118 -42 20 -79 36 -82 37 -3 1 -37 16 -77 34 -40 18 -84 37 -98 41 -14 4
-49 18 -78 31 -29 13 -55 24 -58 24 -3 0 -29 11 -57 24 -29 13 -128 56 -222
96 -93 40 -183 78 -200 86 -58 25 -230 96 -240 98 -5 1 -26 9 -45 18 -19 8
-53 21 -75 28 -22 7 -44 16 -50 20 -5 5 -14 9 -20 10 -22 5 -380 140 -450 170
-11 5 -92 36 -180 70 -88 34 -169 65 -180 70 -11 5 -45 19 -75 31 -30 11 -68
27 -85 34 -16 7 -61 26 -100 41 -80 32 -141 69 -149 91 -13 33 47 65 264 140
842 292 838 291 969 248z m-1449 -755 c47 -16 99 -34 115 -41 17 -6 35 -13 40
-15 6 -1 53 -21 105 -43 91 -40 105 -46 160 -69 37 -15 64 -25 72 -26 3 -1 10
-4 14 -8 4 -5 14 -8 22 -8 8 0 28 -6 45 -14 18 -8 53 -22 80 -30 79 -26 290
-107 322 -124 17 -9 32 -17 35 -17 10 -3 56 -23 175 -78 66 -30 181 -80 255
-111 74 -31 143 -61 152 -66 10 -6 22 -10 28 -10 5 0 33 -11 62 -24 29 -13 78
-33 108 -44 134 -48 796 -305 857 -333 24 -10 49 -19 56 -19 7 0 18 -5 24 -11
6 -6 17 -12 24 -13 8 -2 28 -8 44 -15 96 -38 162 -64 180 -72 11 -5 101 -40
200 -79 99 -39 190 -75 203 -81 12 -5 32 -13 45 -18 225 -91 467 -204 475
-223 2 -4 7 -8 12 -8 10 0 105 -64 126 -84 8 -9 19 -16 23 -16 11 0 137 -126
191 -190 94 -114 196 -288 230 -395 7 -22 15 -44 19 -50 3 -5 6 -14 7 -20 8
-42 13 -68 18 -83 34 -112 39 -334 12 -502 -10 -64 -39 -160 -49 -160 -6 0 -7
-3 -4 -7 10 -9 -65 -144 -118 -213 -50 -65 -91 -87 -122 -65 -18 13 -38 54
-94 200 -28 72 -64 138 -84 155 -8 7 -15 17 -15 23 0 22 -173 180 -262 238
-87 57 -291 165 -383 201 -22 9 -66 28 -97 42 -31 14 -64 26 -72 26 -9 0 -16
5 -16 10 0 6 -8 10 -18 10 -10 0 -22 4 -27 8 -6 5 -48 23 -94 41 -46 18 -91
36 -100 41 -9 4 -45 20 -81 35 -36 14 -74 30 -85 35 -11 5 -36 15 -55 23 -58
23 -142 59 -187 78 -24 11 -45 19 -48 19 -3 0 -24 9 -48 19 -23 11 -132 56
-242 101 -110 45 -213 88 -230 95 -16 7 -55 23 -85 35 -30 12 -68 28 -85 35
-16 8 -66 28 -110 45 -44 18 -93 38 -110 45 -16 8 -55 23 -85 35 -30 12 -71
28 -90 37 -19 8 -62 26 -95 40 -33 15 -84 37 -114 51 -92 42 -183 69 -231 68
-68 -2 -73 -17 -75 -272 -1 -116 -6 -217 -9 -223 -4 -6 -2 -11 4 -11 6 0 8 -5
4 -11 -11 -18 -14 -417 -19 -2304 -6 -2245 -7 -2909 -4 -4205 1 -591 0 -1082
-3 -1090 -2 -8 -11 -35 -18 -59 l-14 -43 -53 5 c-40 4 -84 22 -171 68 -64 34
-164 87 -222 117 -657 340 -639 328 -666 453 -6 31 -5 192 3 294 3 44 5 168 4
275 -3 483 2 2295 14 4390 4 782 16 4025 15 4150 0 19 9 50 20 68 19 30 22 32
62 26 24 -4 81 -19 128 -34z m1485 -2160 c22 -7 108 -46 190 -87 83 -42 161
-79 175 -84 14 -4 49 -16 78 -27 29 -11 55 -20 58 -20 3 0 31 -10 62 -22 182
-72 245 -115 256 -176 7 -35 7 -222 1 -319 -11 -160 -16 -453 -16 -850 1 -903
10 -2361 15 -2390 2 -16 7 -48 10 -69 3 -22 11 -43 17 -47 26 -15 103 2 191
44 51 25 114 54 140 66 43 19 150 70 438 209 52 25 97 46 100 47 3 0 25 10 50
22 25 11 128 57 230 103 268 119 301 134 520 235 74 34 158 72 185 84 28 13
57 27 65 32 8 5 26 14 40 20 14 5 38 17 54 25 16 8 35 14 43 14 7 0 13 5 13
10 0 6 5 10 12 10 6 0 41 14 77 31 36 18 100 47 141 66 117 55 399 197 458
232 29 17 55 31 57 31 15 0 298 180 303 193 2 4 8 7 13 7 12 0 196 138 254
189 113 101 240 238 317 341 84 113 118 150 138 150 6 0 10 4 10 8 0 4 9 8 20
9 35 3 51 -55 45 -166 -7 -142 -14 -227 -25 -295 -5 -34 -12 -81 -16 -106 -3
-25 -7 -49 -8 -55 -2 -5 -6 -28 -11 -50 -21 -111 -79 -313 -115 -400 -73 -180
-134 -296 -216 -410 -67 -94 -85 -115 -190 -220 -98 -98 -112 -109 -238 -201
-56 -41 -106 -78 -113 -84 -7 -5 -14 -10 -16 -10 -3 0 -44 -24 -93 -53 -145
-86 -279 -152 -599 -292 -16 -7 -55 -24 -85 -38 -30 -13 -89 -39 -130 -57 -41
-18 -103 -46 -138 -61 -34 -16 -64 -29 -66 -29 -2 0 -37 -15 -78 -34 -40 -18
-103 -47 -140 -64 -36 -17 -68 -28 -71 -26 -2 3 -10 -2 -17 -11 -7 -8 -18 -15
-24 -15 -7 0 -30 -8 -52 -19 -21 -10 -55 -25 -74 -34 -19 -8 -75 -34 -123 -56
-49 -23 -91 -41 -92 -41 -2 0 -52 -23 -110 -50 -58 -28 -108 -50 -110 -50 -4
0 -138 -63 -285 -133 -36 -17 -67 -32 -70 -32 -3 -1 -80 -38 -172 -83 -92 -45
-172 -82 -178 -82 -5 0 -10 -4 -10 -9 0 -5 -12 -12 -27 -16 -42 -10 -205 -90
-228 -112 -46 -42 -59 -93 -57 -218 1 -44 4 -366 6 -715 3 -349 6 -671 7 -715
6 -234 -40 -288 -341 -410 -125 -51 -181 -76 -360 -163 -74 -36 -137 -66 -140
-67 -35 -12 -71 -19 -95 -19 -26 0 -32 6 -42 37 -25 76 -33 228 -22 425 2 34
0 62 -4 62 -5 0 -6 4 -2 10 5 9 12 1876 19 5480 4 1638 2 1590 54 1616 23 11
58 7 137 -16z m1329 -574 c21 -4 46 -11 55 -17 23 -13 132 -61 236 -104 196
-81 336 -151 441 -220 88 -59 229 -187 218 -198 -4 -4 -3 -7 3 -7 12 0 83 -94
83 -110 0 -6 3 -10 8 -10 8 0 50 -102 57 -140 7 -37 7 -82 1 -110 -5 -26 -112
-130 -133 -130 -6 0 -18 -6 -25 -13 -16 -16 -166 -90 -172 -85 -2 1 -14 -6
-26 -17 -12 -11 -25 -19 -29 -18 -3 0 -22 -6 -41 -14 -19 -8 -87 -35 -150 -59
-202 -79 -313 -126 -373 -155 -86 -44 -157 -70 -204 -76 l-42 -5 -15 52 c-13
42 -16 114 -17 364 -3 983 4 1093 70 1081 9 -1 33 -6 55 -9z"/>
</g>
</svg>
